<svg id="eSdpqCYfKXH1" xmlns="http://www.w3.org/2000/svg" xmlns:xlink="http://www.w3.org/1999/xlink" viewBox="0 0 100 100" shape-rendering="geometricPrecision" text-rendering="geometricPrecision"><g transform="matrix(1.062975 0 0 2.925812 50 61.603676)"><path d="M0,-8.06452c4.45161,0,8.06452,3.6129,8.06452,8.06452s-3.6129,8.06452-8.06452,8.06452-8.06452-3.6129-8.06452-8.06452s3.6129-8.06452,8.06452-8.06452Z" fill="#f4279d" stroke="#e04371" stroke-width="0"/></g><g transform="matrix(.839829 0 0 0.839829 34.538219 61.603676)"><path d="M0,-7.01262c3.87097,0,7.01262,3.14165,7.01262,7.01262s-3.14165,7.01262-7.01262,7.01262-7.01262-3.14165-7.01262-7.01262s3.14165-7.01262,7.01262-7.01262Z" fill="#f4279d" stroke="#28d482" stroke-width="0"/></g><g transform="matrix(.839829 0 0 0.839829 65.461784 61.603676)"><path d="M0,-7.01262c3.87097,0,7.01262,3.14165,7.01262,7.01262s-3.14165,7.01262-7.01262,7.01262-7.01262-3.14165-7.01262-7.01262s3.14165-7.01262,7.01262-7.01262Z" fill="#f4279d" stroke="#28d482" stroke-width="0"/></g><g transform="matrix(.839829 0 0 0.839829 43.176861 89.405304)"><path d="M0,-7.01262c3.87097,0,7.01262,3.14165,7.01262,7.01262s-3.14165,7.01262-7.01262,7.01262-7.01262-3.14165-7.01262-7.01262s3.14165-7.01262,7.01262-7.01262Z" fill="#f4279d" stroke="#28d482" stroke-width="0"/></g><g transform="matrix(.839829 0 0 0.839829 57.1996 89.405304)"><path d="M0,-7.01262c3.87097,0,7.01262,3.14165,7.01262,7.01262s-3.14165,7.01262-7.01262,7.01262-7.01262-3.14165-7.01262-7.01262s3.14165-7.01262,7.01262-7.01262Z" fill="#f4279d" stroke="#28d482" stroke-width="0"/></g><g transform="matrix(2.300183 0 0 2.300183 50.3102 20.835602)"><path d="M0,-7.01262c3.87097,0,7.01262,3.14165,7.01262,7.01262s-3.14165,7.01262-7.01262,7.01262-7.01262-3.14165-7.01262-7.01262s3.14165-7.01262,7.01262-7.01262Z" fill="#f4279d" stroke="#cbd8a2" stroke-width="0"/></g></svg>
