<svg cache-id="5b9736e060d14c4a98a5e497b75a3f22" id="eW1lbrhijdR1" xmlns="http://www.w3.org/2000/svg" xmlns:xlink="http://www.w3.org/1999/xlink" viewBox="0 0 100 100" shape-rendering="geometricPrecision" text-rendering="geometricPrecision"><g transform="matrix(.839829 0 0 0.839829 23.389404 60.891613)"><path d="M0,-7.01262c3.87097,0,7.01262,3.14165,7.01262,7.01262s-3.14165,7.01262-7.01262,7.01262-7.01262-3.14165-7.01262-7.01262s3.14165-7.01262,7.01262-7.01262Z" fill="#f4279d" stroke="#28d482" stroke-width="0"/></g><g transform="matrix(.839829 0 0 0.839829 76.610596 60.891617)"><path d="M0,-7.01262c3.87097,0,7.01262,3.14165,7.01262,7.01262s-3.14165,7.01262-7.01262,7.01262-7.01262-3.14165-7.01262-7.01262s3.14165-7.01262,7.01262-7.01262Z" fill="#f4279d" stroke="#28d482" stroke-width="0"/></g><g transform="matrix(.839829 0 0 0.839829 39.829918 90.546906)"><path d="M0,-7.01262c3.87097,0,7.01262,3.14165,7.01262,7.01262s-3.14165,7.01262-7.01262,7.01262-7.01262-3.14165-7.01262-7.01262s3.14165-7.01262,7.01262-7.01262Z" fill="#f4279d" stroke="#28d482" stroke-width="0"/></g><g transform="matrix(.839829 0 0 0.839829 60.17009 90.546906)"><path d="M0,-7.01262c3.87097,0,7.01262,3.14165,7.01262,7.01262s-3.14165,7.01262-7.01262,7.01262-7.01262-3.14165-7.01262-7.01262s3.14165-7.01262,7.01262-7.01262Z" fill="#f4279d" stroke="#28d482" stroke-width="0"/></g><g transform="matrix(2.569427 0 0 2.569427 50.000004 65.553314)"><path d="M0,-8.06452c4.45161,0,8.06452,3.6129,8.06452,8.06452s-3.6129,8.06452-8.06452,8.06452-8.06452-3.6129-8.06452-8.06452s3.6129-8.06452,8.06452-8.06452Z" fill="#f4279d" stroke="#e04371" stroke-width="0"/></g><g transform="matrix(2.300183 0 0 2.300183 49.929176 19.694014)"><path d="M0,-7.01262c3.87097,0,7.01262,3.14165,7.01262,7.01262s-3.14165,7.01262-7.01262,7.01262-7.01262-3.14165-7.01262-7.01262s3.14165-7.01262,7.01262-7.01262Z" fill="#f4279d" stroke="#cbd8a2" stroke-width="0"/></g><g transform="matrix(1.26109 0 0 1.26109 39.829918 44.832123)"><path d="M0,-8.06452c4.45161,0,8.06452,3.6129,8.06452,8.06452s-3.6129,8.06452-8.06452,8.06452-8.06452-3.6129-8.06452-8.06452s3.6129-8.06452,8.06452-8.06452Z" fill="#f4279d" stroke="#e04371" stroke-width="0"/></g><g transform="matrix(1.26109 0 0 1.26109 60.17009 44.832127)"><path d="M0,-8.06452c4.45161,0,8.06452,3.6129,8.06452,8.06452s-3.6129,8.06452-8.06452,8.06452-8.06452-3.6129-8.06452-8.06452s3.6129-8.06452,8.06452-8.06452Z" fill="#f4279d" stroke="#e04371" stroke-width="0"/></g></svg>
