<svg id="eQcLAadMJEG1" xmlns="http://www.w3.org/2000/svg" xmlns:xlink="http://www.w3.org/1999/xlink" viewBox="0 0 100 100" shape-rendering="geometricPrecision" text-rendering="geometricPrecision"><g transform="matrix(.710962 0 0 0.710962 22.570711 53.145454)"><path d="M0,-7.01262c3.87097,0,7.01262,3.14165,7.01262,7.01262s-3.14165,7.01262-7.01262,7.01262-7.01262-3.14165-7.01262-7.01262s3.14165-7.01262,7.01262-7.01262Z" fill="#3147f7" stroke="#28d482" stroke-width="0"/></g><g transform="matrix(.710962 0 0 0.710962 40.909946 91.625664)"><path d="M0,-7.01262c3.87097,0,7.01262,3.14165,7.01262,7.01262s-3.14165,7.01262-7.01262,7.01262-7.01262-3.14165-7.01262-7.01262s3.14165-7.01262,7.01262-7.01262Z" fill="#3147f7" stroke="#28d482" stroke-width="0"/></g><g transform="matrix(.710962 0 0 0.710962 58.60302 91.625664)"><path d="M0,-7.01262c3.87097,0,7.01262,3.14165,7.01262,7.01262s-3.14165,7.01262-7.01262,7.01262-7.01262-3.14165-7.01262-7.01262s3.14165-7.01262,7.01262-7.01262Z" fill="#3147f7" stroke="#28d482" stroke-width="0"/></g><g transform="matrix(.710962 0 0 0.710962 77.429291 53.145454)"><path d="M0,-7.01262c3.87097,0,7.01262,3.14165,7.01262,7.01262s-3.14165,7.01262-7.01262,7.01262-7.01262-3.14165-7.01262-7.01262s3.14165-7.01262,7.01262-7.01262Z" fill="#3147f7" stroke="#28d482" stroke-width="0"/></g><g transform="matrix(2.669951 0 0 2.669951 49.911709 53.145454)"><path d="M0,-8.06452c4.45161,0,8.06452,3.6129,8.06452,8.06452s-3.6129,8.06452-8.06452,8.06452-8.06452-3.6129-8.06452-8.06452s3.6129-8.06452,8.06452-8.06452Z" fill="#3147f7" stroke="#e04371" stroke-width="0"/></g><g transform="matrix(.863831 0 0 0.863831 40.909946 79.880981)"><path d="M0,-7.01262c3.87097,0,7.01262,3.14165,7.01262,7.01262s-3.14165,7.01262-7.01262,7.01262-7.01262-3.14165-7.01262-7.01262s3.14165-7.01262,7.01262-7.01262Z" fill="#3147f7" stroke="#28d482" stroke-width="0"/></g><g transform="matrix(.863831 0 0 0.863831 58.60302 79.880981)"><path d="M0,-7.01262c3.87097,0,7.01262,3.14165,7.01262,7.01262s-3.14165,7.01262-7.01262,7.01262-7.01262-3.14165-7.01262-7.01262s3.14165-7.01262,7.01262-7.01262Z" fill="#3147f7" stroke="#28d482" stroke-width="0"/></g><g transform="matrix(1.960611 0 0 1.960611 49.911716 17.137657)"><path d="M0,-7.01262c3.87097,0,7.01262,3.14165,7.01262,7.01262s-3.14165,7.01262-7.01262,7.01262-7.01262-3.14165-7.01262-7.01262s3.14165-7.01262,7.01262-7.01262Z" fill="#3147f7" stroke="#cbd8a2" stroke-width="0"/></g><g transform="matrix(.90468 0 0 0.90468 33.852226 38.182487)"><path d="M0,-8.06452c4.45161,0,8.06452,3.6129,8.06452,8.06452s-3.6129,8.06452-8.06452,8.06452-8.06452-3.6129-8.06452-8.06452s3.6129-8.06452,8.06452-8.06452Z" fill="#3147f7" stroke="#e04371" stroke-width="0"/></g><g transform="matrix(.90468 0 0 0.90468 64.459396 38.182487)"><path d="M0,-8.06452c4.45161,0,8.06452,3.6129,8.06452,8.06452s-3.6129,8.06452-8.06452,8.06452-8.06452-3.6129-8.06452-8.06452s3.6129-8.06452,8.06452-8.06452Z" fill="#3147f7" stroke="#e04371" stroke-width="0"/></g></svg>
