<svg id="eazJlH0jwTF1" xmlns="http://www.w3.org/2000/svg" xmlns:xlink="http://www.w3.org/1999/xlink" viewBox="0 0 100 100" shape-rendering="geometricPrecision" text-rendering="geometricPrecision"><g transform="matrix(1.906896 0 0 1.906896 49.933739 69.979225)"><path d="M0,-8.06452c4.45161,0,8.06452,3.6129,8.06452,8.06452s-3.6129,8.06452-8.06452,8.06452-8.06452-3.6129-8.06452-8.06452s3.6129-8.06452,8.06452-8.06452Z" fill="#f4279d" stroke="#e04371" stroke-width="0"/></g><g transform="matrix(.839829 0 0 0.839829 29.886076 59.789162)"><path d="M0,-7.01262c3.87097,0,7.01262,3.14165,7.01262,7.01262s-3.14165,7.01262-7.01262,7.01262-7.01262-3.14165-7.01262-7.01262s3.14165-7.01262,7.01262-7.01262Z" fill="#f4279d" stroke="#28d482" stroke-width="0"/></g><g transform="matrix(.839829 0 0 0.839829 70.113922 59.789162)"><path d="M0,-7.01262c3.87097,0,7.01262,3.14165,7.01262,7.01262s-3.14165,7.01262-7.01262,7.01262-7.01262-3.14165-7.01262-7.01262s3.14165-7.01262,7.01262-7.01262Z" fill="#f4279d" stroke="#28d482" stroke-width="0"/></g><g transform="matrix(.839829 0 0 0.839829 40.444946 90.246819)"><path d="M0,-7.01262c3.87097,0,7.01262,3.14165,7.01262,7.01262s-3.14165,7.01262-7.01262,7.01262-7.01262-3.14165-7.01262-7.01262s3.14165-7.01262,7.01262-7.01262Z" fill="#f4279d" stroke="#28d482" stroke-width="0"/></g><g transform="matrix(.839829 0 0 0.839829 59.422527 90.246819)"><path d="M0,-7.01262c3.87097,0,7.01262,3.14165,7.01262,7.01262s-3.14165,7.01262-7.01262,7.01262-7.01262-3.14165-7.01262-7.01262s3.14165-7.01262,7.01262-7.01262Z" fill="#f4279d" stroke="#28d482" stroke-width="0"/></g><g transform="matrix(1.325278 0 0 1.325278 50.243935 51.224686)"><path d="M0,-8.06452c4.45161,0,8.06452,3.6129,8.06452,8.06452s-3.6129,8.06452-8.06452,8.06452-8.06452-3.6129-8.06452-8.06452s3.6129-8.06452,8.06452-8.06452Z" fill="#f4279d" stroke="#e04371" stroke-width="0"/></g><g transform="matrix(2.300183 0 0 2.300183 50.243935 19.994087)"><path d="M0,-7.01262c3.87097,0,7.01262,3.14165,7.01262,7.01262s-3.14165,7.01262-7.01262,7.01262-7.01262-3.14165-7.01262-7.01262s3.14165-7.01262,7.01262-7.01262Z" fill="#f4279d" stroke="#cbd8a2" stroke-width="0"/></g><g transform="matrix(.936218 0 0 0.936218 43.76461 43.674541)"><path d="M0,-8.06452c4.45161,0,8.06452,3.6129,8.06452,8.06452s-3.6129,8.06452-8.06452,8.06452-8.06452-3.6129-8.06452-8.06452s3.6129-8.06452,8.06452-8.06452Z" fill="#f4279d" stroke="#e04371" stroke-width="0"/></g><g transform="matrix(.936218 0 0 0.936218 56.483883 43.674545)"><path d="M0,-8.06452c4.45161,0,8.06452,3.6129,8.06452,8.06452s-3.6129,8.06452-8.06452,8.06452-8.06452-3.6129-8.06452-8.06452s3.6129-8.06452,8.06452-8.06452Z" fill="#f4279d" stroke="#e04371" stroke-width="0"/></g></svg>
