<svg id="eRrVLPK5hf21" xmlns="http://www.w3.org/2000/svg" xmlns:xlink="http://www.w3.org/1999/xlink" viewBox="0 0 100 100" shape-rendering="geometricPrecision" text-rendering="geometricPrecision"><g transform="matrix(.710962 0 0 0.710962 36.067997 51.500168)"><path d="M0,-7.01262c3.87097,0,7.01262,3.14165,7.01262,7.01262s-3.14165,7.01262-7.01262,7.01262-7.01262-3.14165-7.01262-7.01262s3.14165-7.01262,7.01262-7.01262Z" fill="#3147f7" stroke="#28d482" stroke-width="0"/></g><g transform="matrix(.710962 0 0 0.710962 43.369991 88.725876)"><path d="M0,-7.01262c3.87097,0,7.01262,3.14165,7.01262,7.01262s-3.14165,7.01262-7.01262,7.01262-7.01262-3.14165-7.01262-7.01262s3.14165-7.01262,7.01262-7.01262Z" fill="#3147f7" stroke="#28d482" stroke-width="0"/></g><g transform="matrix(.710962 0 0 0.710962 56.467262 88.725876)"><path d="M0,-7.01262c3.87097,0,7.01262,3.14165,7.01262,7.01262s-3.14165,7.01262-7.01262,7.01262-7.01262-3.14165-7.01262-7.01262s3.14165-7.01262,7.01262-7.01262Z" fill="#3147f7" stroke="#28d482" stroke-width="0"/></g><g transform="matrix(.710962 0 0 0.710962 63.932003 51.500168)"><path d="M0,-7.01262c3.87097,0,7.01262,3.14165,7.01262,7.01262s-3.14165,7.01262-7.01262,7.01262-7.01262-3.14165-7.01262-7.01262s3.14165-7.01262,7.01262-7.01262Z" fill="#3147f7" stroke="#28d482" stroke-width="0"/></g><g transform="matrix(.985341 0 0 2.55772 50 53.556225)"><path d="M0,-8.06452c4.45161,0,8.06452,3.6129,8.06452,8.06452s-3.6129,8.06452-8.06452,8.06452-8.06452-3.6129-8.06452-8.06452s3.6129-8.06452,8.06452-8.06452Z" fill="#3147f7" stroke="#e04371" stroke-width="0"/></g><g transform="matrix(.710126 0 0 0.710126 43.364136 77.760323)"><path d="M0,-7.01262c3.87097,0,7.01262,3.14165,7.01262,7.01262s-3.14165,7.01262-7.01262,7.01262-7.01262-3.14165-7.01262-7.01262s3.14165-7.01262,7.01262-7.01262Z" fill="#3147f7" stroke="#28d482" stroke-width="0"/></g><g transform="matrix(.710126 0 0 0.710126 56.461407 77.760323)"><path d="M0,-7.01262c3.87097,0,7.01262,3.14165,7.01262,7.01262s-3.14165,7.01262-7.01262,7.01262-7.01262-3.14165-7.01262-7.01262s3.14165-7.01262,7.01262-7.01262Z" fill="#3147f7" stroke="#28d482" stroke-width="0"/></g><g transform="matrix(1.960611 0 0 1.960611 50 18.180431)"><path d="M0,-7.01262c3.87097,0,7.01262,3.14165,7.01262,7.01262s-3.14165,7.01262-7.01262,7.01262-7.01262-3.14165-7.01262-7.01262s3.14165-7.01262,7.01262-7.01262Z" fill="#3147f7" stroke="#cbd8a2" stroke-width="0"/></g></svg>
