<svg id="eq3IDi50JAw1" xmlns="http://www.w3.org/2000/svg" xmlns:xlink="http://www.w3.org/1999/xlink" viewBox="0 0 100 100" shape-rendering="geometricPrecision" text-rendering="geometricPrecision"><g transform="matrix(1.342903 0 0 1.342903 50.428391 63.877686)"><path d="M0,-8.06452c4.45161,0,8.06452,3.6129,8.06452,8.06452s-3.6129,8.06452-8.06452,8.06452-8.06452-3.6129-8.06452-8.06452s3.6129-8.06452,8.06452-8.06452Z" fill="#3147f7" stroke="#e04371" stroke-width="0"/></g><g transform="matrix(.710962 0 0 0.710962 31.084072 53.042946)"><path d="M0,-7.01262c3.87097,0,7.01262,3.14165,7.01262,7.01262s-3.14165,7.01262-7.01262,7.01262-7.01262-3.14165-7.01262-7.01262s3.14165-7.01262,7.01262-7.01262Z" fill="#3147f7" stroke="#28d482" stroke-width="0"/></g><g transform="matrix(.710962 0 0 0.710962 41.496708 91.284142)"><path d="M0,-7.01262c3.87097,0,7.01262,3.14165,7.01262,7.01262s-3.14165,7.01262-7.01262,7.01262-7.01262-3.14165-7.01262-7.01262s3.14165-7.01262,7.01262-7.01262Z" fill="#3147f7" stroke="#28d482" stroke-width="0"/></g><g transform="matrix(.710962 0 0 0.710962 59.189819 91.284142)"><path d="M0,-7.01262c3.87097,0,7.01262,3.14165,7.01262,7.01262s-3.14165,7.01262-7.01262,7.01262-7.01262-3.14165-7.01262-7.01262s3.14165-7.01262,7.01262-7.01262Z" fill="#3147f7" stroke="#28d482" stroke-width="0"/></g><g transform="matrix(.710962 0 0 0.710962 68.915932 53.042946)"><path d="M0,-7.01262c3.87097,0,7.01262,3.14165,7.01262,7.01262s-3.14165,7.01262-7.01262,7.01262-7.01262-3.14165-7.01262-7.01262s3.14165-7.01262,7.01262-7.01262Z" fill="#3147f7" stroke="#28d482" stroke-width="0"/></g><g transform="matrix(1.657649 0 0 1.657649 50.428391 45.521069)"><path d="M0,-8.06452c4.45161,0,8.06452,3.6129,8.06452,8.06452s-3.6129,8.06452-8.06452,8.06452-8.06452-3.6129-8.06452-8.06452s3.6129-8.06452,8.06452-8.06452Z" fill="#3147f7" stroke="#e04371" stroke-width="0"/></g><g transform="matrix(.863831 0 0 0.863831 41.496708 79.240723)"><path d="M0,-7.01262c3.87097,0,7.01262,3.14165,7.01262,7.01262s-3.14165,7.01262-7.01262,7.01262-7.01262-3.14165-7.01262-7.01262s3.14165-7.01262,7.01262-7.01262Z" fill="#3147f7" stroke="#28d482" stroke-width="0"/></g><g transform="matrix(.863831 0 0 0.863831 59.189819 79.240723)"><path d="M0,-7.01262c3.87097,0,7.01262,3.14165,7.01262,7.01262s-3.14165,7.01262-7.01262,7.01262-7.01262-3.14165-7.01262-7.01262s3.14165-7.01262,7.01262-7.01262Z" fill="#3147f7" stroke="#28d482" stroke-width="0"/></g><g transform="matrix(1.960611 0 0 1.960611 50.49852 17.479168)"><path d="M0,-7.01262c3.87097,0,7.01262,3.14165,7.01262,7.01262s-3.14165,7.01262-7.01262,7.01262-7.01262-3.14165-7.01262-7.01262s3.14165-7.01262,7.01262-7.01262Z" fill="#3147f7" stroke="#cbd8a2" stroke-width="0"/></g><g transform="matrix(.90468 0 0 0.90468 38.379883 38.523994)"><path d="M0,-8.06452c4.45161,0,8.06452,3.6129,8.06452,8.06452s-3.6129,8.06452-8.06452,8.06452-8.06452-3.6129-8.06452-8.06452s3.6129-8.06452,8.06452-8.06452Z" fill="#3147f7" stroke="#e04371" stroke-width="0"/></g><g transform="matrix(.90468 0 0 0.90468 61.620117 39.225258)"><path d="M0,-8.06452c4.45161,0,8.06452,3.6129,8.06452,8.06452s-3.6129,8.06452-8.06452,8.06452-8.06452-3.6129-8.06452-8.06452s3.6129-8.06452,8.06452-8.06452Z" fill="#3147f7" stroke="#e04371" stroke-width="0"/></g></svg>
