<svg id="eS2ryE1PgNb1" xmlns="http://www.w3.org/2000/svg" xmlns:xlink="http://www.w3.org/1999/xlink" viewBox="0 0 300 300" shape-rendering="geometricPrecision" text-rendering="geometricPrecision" project-id="c14a0d4e84344d8c8e35ba1103faed9f" export-id="9683dd54b2f2459da87d08fa8a7c4d9a" cached="false"><defs><filter id="eS2ryE1PgNb3-filter" x="-150%" y="-150%" width="400%" height="400%"><feGaussianBlur id="eS2ryE1PgNb3-filter-drop-shadow-0-blur" in="SourceAlpha" stdDeviation="9,9"/><feOffset id="eS2ryE1PgNb3-filter-drop-shadow-0-offset" dx="0" dy="0" result="tmp"/><feFlood id="eS2ryE1PgNb3-filter-drop-shadow-0-flood" flood-color="#000"/><feComposite id="eS2ryE1PgNb3-filter-drop-shadow-0-composite" operator="in" in2="tmp"/><feMerge id="eS2ryE1PgNb3-filter-drop-shadow-0-merge" result="result"><feMergeNode id="eS2ryE1PgNb3-filter-drop-shadow-0-merge-node-1"/><feMergeNode id="eS2ryE1PgNb3-filter-drop-shadow-0-merge-node-2" in="SourceGraphic"/></feMerge></filter><filter id="eS2ryE1PgNb4-filter" x="-150%" y="-150%" width="400%" height="400%"><feGaussianBlur id="eS2ryE1PgNb4-filter-drop-shadow-0-blur" in="SourceAlpha" stdDeviation="1,1"/><feOffset id="eS2ryE1PgNb4-filter-drop-shadow-0-offset" dx="0" dy="0" result="tmp"/><feFlood id="eS2ryE1PgNb4-filter-drop-shadow-0-flood" flood-color="#000"/><feComposite id="eS2ryE1PgNb4-filter-drop-shadow-0-composite" operator="in" in2="tmp"/><feMerge id="eS2ryE1PgNb4-filter-drop-shadow-0-merge" result="result"><feMergeNode id="eS2ryE1PgNb4-filter-drop-shadow-0-merge-node-1"/><feMergeNode id="eS2ryE1PgNb4-filter-drop-shadow-0-merge-node-2" in="SourceGraphic"/></feMerge></filter><filter id="eS2ryE1PgNb5-filter" x="-150%" y="-150%" width="400%" height="400%"><feGaussianBlur id="eS2ryE1PgNb5-filter-drop-shadow-0-blur" in="SourceAlpha" stdDeviation="1,1"/><feOffset id="eS2ryE1PgNb5-filter-drop-shadow-0-offset" dx="0" dy="0" result="tmp"/><feFlood id="eS2ryE1PgNb5-filter-drop-shadow-0-flood" flood-color="#000"/><feComposite id="eS2ryE1PgNb5-filter-drop-shadow-0-composite" operator="in" in2="tmp"/><feMerge id="eS2ryE1PgNb5-filter-drop-shadow-0-merge" result="result"><feMergeNode id="eS2ryE1PgNb5-filter-drop-shadow-0-merge-node-1"/><feMergeNode id="eS2ryE1PgNb5-filter-drop-shadow-0-merge-node-2" in="SourceGraphic"/></feMerge></filter></defs><g transform="matrix(-1.364601 0 0 1.385467 362.356005-56.969682)"><path d="M255.82321,149.38623c0,55.51491-44.86356,100.51863-100.20556,100.51863v-.00001c-55.342,0-100.20556-45.00372-100.20556-100.51863s44.86356-100.51863,100.20556-100.51863v.00001c55.342,0,100.20556,45.00372,100.20556,100.51863ZM155.61765,96.63385v-.00001c-28.70169,0-51.96901,23.61804-51.96901,52.75238s23.26732,52.75238,51.96901,52.75238v.00001c28.70169,0,51.96901-23.61804,51.96901-52.75238s-23.26732-52.75238-51.96901-52.75238Z" transform="matrix(.976105 0 0 0.976393 3.718483 3.526561)" filter="url(#eS2ryE1PgNb3-filter)" fill="#41e6ff" stroke-width="0"/><path d="M255.9286,149.69302c0,55.51491-44.86356,100.51863-100.20556,100.51863v-49.93876c27.50128-.04198,49.78249-22.42058,49.78249-50.01994s-22.28121-49.97797-49.78249-50.01994v-51.05862c55.342,0,100.20556,45.00372,100.20556,100.51863Z" transform="translate(-.10539-.306788)" filter="url(#eS2ryE1PgNb4-filter)" fill="#41e6ff" stroke-width="0"/><path d="M255.9286,149.69302c0,55.51491-44.86356,100.51863-100.20556,100.51863v-49.93876c27.50128-.04198,49.78249-22.42058,49.78249-50.01994s-22.28121-49.97797-49.78249-50.01994v-51.05862c55.342,0,100.20556,45.00372,100.20556,100.51863Z" transform="matrix(-1 0 0 1 311.34069-.306795)" filter="url(#eS2ryE1PgNb5-filter)" fill="#fb85ff" stroke-width="0"/></g></svg>
