<svg id="eVxPIi5yGg41" xmlns="http://www.w3.org/2000/svg" xmlns:xlink="http://www.w3.org/1999/xlink" viewBox="0 0 100 100" shape-rendering="geometricPrecision" text-rendering="geometricPrecision"><g transform="matrix(1.503078 0 0 1.503078 50 63.569813)"><path d="M0,-8.06452c4.45161,0,8.06452,3.6129,8.06452,8.06452s-3.6129,8.06452-8.06452,8.06452-8.06452-3.6129-8.06452-8.06452s3.6129-8.06452,8.06452-8.06452Z"  stroke="#e04371" stroke-width="0"/></g><g transform="matrix(.710962 0 0 0.710962 29.585552 52.219666)"><path d="M0,-7.01262c3.87097,0,7.01262,3.14165,7.01262,7.01262s-3.14165,7.01262-7.01262,7.01262-7.01262-3.14165-7.01262-7.01262s3.14165-7.01262,7.01262-7.01262Z"  stroke="#28d482" stroke-width="0"/></g><g transform="matrix(.710962 0 0 0.710962 40.998188 91.564606)"><path d="M0,-7.01262c3.87097,0,7.01262,3.14165,7.01262,7.01262s-3.14165,7.01262-7.01262,7.01262-7.01262-3.14165-7.01262-7.01262s3.14165-7.01262,7.01262-7.01262Z"  stroke="#28d482" stroke-width="0"/></g><g transform="matrix(.710962 0 0 0.710962 58.691303 91.564651)"><path d="M0,-7.01262c3.87097,0,7.01262,3.14165,7.01262,7.01262s-3.14165,7.01262-7.01262,7.01262-7.01262-3.14165-7.01262-7.01262s3.14165-7.01262,7.01262-7.01262Z"  stroke="#28d482" stroke-width="0"/></g><g transform="matrix(.710962 0 0 0.710962 70.414444 52.219666)"><path d="M0,-7.01262c3.87097,0,7.01262,3.14165,7.01262,7.01262s-3.14165,7.01262-7.01262,7.01262-7.01262-3.14165-7.01262-7.01262s3.14165-7.01262,7.01262-7.01262Z"  stroke="#28d482" stroke-width="0"/></g><g transform="matrix(1.913164 0 0 1.913164 50 47.233959)"><path d="M0,-8.06452c4.45161,0,8.06452,3.6129,8.06452,8.06452s-3.6129,8.06452-8.06452,8.06452-8.06452-3.6129-8.06452-8.06452s3.6129-8.06452,8.06452-8.06452Z"  stroke="#e04371" stroke-width="0"/></g><g transform="matrix(.863831 0 0 0.863831 40.99823 79.941986)"><path d="M0,-7.01262c3.87097,0,7.01262,3.14165,7.01262,7.01262s-3.14165,7.01262-7.01262,7.01262-7.01262-3.14165-7.01262-7.01262s3.14165-7.01262,7.01262-7.01262Z"  stroke="#28d482" stroke-width="0"/></g><g transform="matrix(.863831 0 0 0.863831 58.691303 79.941986)"><path d="M0,-7.01262c3.87097,0,7.01262,3.14165,7.01262,7.01262s-3.14165,7.01262-7.01262,7.01262-7.01262-3.14165-7.01262-7.01262s3.14165-7.01262,7.01262-7.01262Z"  stroke="#28d482" stroke-width="0"/></g><g transform="matrix(1.960611 0 0 1.960611 50 17.19866)"><path d="M0,-7.01262c3.87097,0,7.01262,3.14165,7.01262,7.01262s-3.14165,7.01262-7.01262,7.01262-7.01262-3.14165-7.01262-7.01262s3.14165-7.01262,7.01262-7.01262Z"  stroke="#cbd8a2" stroke-width="0"/></g><g transform="matrix(.90468 0 0 0.90468 35.94051 38.243488)"><path d="M0,-8.06452c4.45161,0,8.06452,3.6129,8.06452,8.06452s-3.6129,8.06452-8.06452,8.06452-8.06452-3.6129-8.06452-8.06452s3.6129-8.06452,8.06452-8.06452Z"  stroke="#e04371" stroke-width="0"/></g><g transform="matrix(.90468 0 0 0.90468 62.54768 38.243492)"><path d="M0,-8.06452c4.45161,0,8.06452,3.6129,8.06452,8.06452s-3.6129,8.06452-8.06452,8.06452-8.06452-3.6129-8.06452-8.06452s3.6129-8.06452,8.06452-8.06452Z"  stroke="#e04371" stroke-width="0"/></g></svg>
