<svg id="eIKv1Hthk8s1" xmlns="http://www.w3.org/2000/svg" xmlns:xlink="http://www.w3.org/1999/xlink" viewBox="0 0 100 100" shape-rendering="geometricPrecision" text-rendering="geometricPrecision"><g transform="matrix(1.950068 0 0 1.950068 50.3102 72.137466)"><path d="M0,-8.06452c4.45161,0,8.06452,3.6129,8.06452,8.06452s-3.6129,8.06452-8.06452,8.06452-8.06452-3.6129-8.06452-8.06452s3.6129-8.06452,8.06452-8.06452Z"  stroke="#e04371" stroke-width="0"/></g><g transform="matrix(.839829 0 0 0.839829 30.019453 61.318737)"><path d="M0,-7.01262c3.87097,0,7.01262,3.14165,7.01262,7.01262s-3.14165,7.01262-7.01262,7.01262-7.01262-3.14165-7.01262-7.01262s3.14165-7.01262,7.01262-7.01262Z"  stroke="#28d482" stroke-width="0"/></g><g transform="matrix(.839829 0 0 0.839829 70.600945 61.318737)"><path d="M0,-7.01262c3.87097,0,7.01262,3.14165,7.01262,7.01262s-3.14165,7.01262-7.01262,7.01262-7.01262-3.14165-7.01262-7.01262s3.14165-7.01262,7.01262-7.01262Z"  stroke="#28d482" stroke-width="0"/></g><g transform="matrix(.839829 0 0 0.839829 40.06929 91.802803)"><path d="M0,-7.01262c3.87097,0,7.01262,3.14165,7.01262,7.01262s-3.14165,7.01262-7.01262,7.01262-7.01262-3.14165-7.01262-7.01262s3.14165-7.01262,7.01262-7.01262Z"  stroke="#28d482" stroke-width="0"/></g><g transform="matrix(.839829 0 0 0.839829 60.551105 91.802803)"><path d="M0,-7.01262c3.87097,0,7.01262,3.14165,7.01262,7.01262s-3.14165,7.01262-7.01262,7.01262-7.01262-3.14165-7.01262-7.01262s3.14165-7.01262,7.01262-7.01262Z"  stroke="#28d482" stroke-width="0"/></g><g transform="matrix(1.785766 0 0 1.785766 50.381016 55.429337)"><path d="M0,-8.06452c4.45161,0,8.06452,3.6129,8.06452,8.06452s-3.6129,8.06452-8.06452,8.06452-8.06452-3.6129-8.06452-8.06452s3.6129-8.06452,8.06452-8.06452Z"  stroke="#e04371" stroke-width="0"/></g><g transform="matrix(2.300183 0 0 2.300183 50.3102 18.438108)"><path d="M0,-7.01262c3.87097,0,7.01262,3.14165,7.01262,7.01262s-3.14165,7.01262-7.01262,7.01262-7.01262-3.14165-7.01262-7.01262s3.14165-7.01262,7.01262-7.01262Z"  stroke="#cbd8a2" stroke-width="0"/></g><g transform="matrix(1.26109 0 0 1.26109 40.82991 43.996979)"><path d="M0,-8.06452c4.45161,0,8.06452,3.6129,8.06452,8.06452s-3.6129,8.06452-8.06452,8.06452-8.06452-3.6129-8.06452-8.06452s3.6129-8.06452,8.06452-8.06452Z"  stroke="#e04371" stroke-width="0"/></g><g transform="matrix(1.26109 0 0 1.26109 59.170086 43.996979)"><path d="M0,-8.06452c4.45161,0,8.06452,3.6129,8.06452,8.06452s-3.6129,8.06452-8.06452,8.06452-8.06452-3.6129-8.06452-8.06452s3.6129-8.06452,8.06452-8.06452Z"  stroke="#e04371" stroke-width="0"/></g></svg>
